<svg width="250" height="250" viewBox="0 0 250 250" fill="none" xmlns="http://www.w3.org/2000/svg">
<g clip-path="url(#clip0_4023_2)">
<rect width="250" height="250" fill="#222222"/>
<path d="M245 5H5V245H245V5Z" stroke="url(#paint0_linear_4023_2)" stroke-width="10"/>
<path d="M86.1364 92.1453H74.4364C72.5385 92.1453 71 93.511 71 95.1956C71 96.8803 72.5385 98.2459 74.4364 98.2459H79.5909C80.5398 98.2459 81.3091 98.9287 81.3091 99.771V122.648C81.3091 124.291 81.3091 125.113 81.8842 125.624C82.4594 126.134 83.385 126.134 85.2364 126.134H85.3591C87.0913 126.134 87.9575 126.134 88.5187 126.586C88.5663 126.624 88.6118 126.664 88.655 126.707C89.1636 127.205 89.1636 127.974 89.1636 129.511C89.1636 131.049 89.1636 131.818 89.6723 132.316C89.7155 132.358 89.761 132.398 89.8086 132.437C90.3698 132.888 91.2359 132.888 92.9682 132.888H108.309C109.688 132.888 110.377 132.888 110.873 133.182C111.087 133.309 111.271 133.473 111.415 133.663C111.745 134.103 111.745 134.715 111.745 135.939C111.745 137.163 111.745 137.775 112.076 138.214C112.22 138.405 112.404 138.568 112.618 138.695C113.113 138.989 113.803 138.989 115.182 138.989H117.882C119.733 138.989 120.659 138.989 121.234 139.499C121.809 140.01 121.809 140.832 121.809 142.475V145.307H125.123H128.436V142.475C128.436 140.832 128.436 140.01 129.011 139.499C129.587 138.989 130.512 138.989 132.364 138.989H134.818C136.197 138.989 136.887 138.989 137.382 138.695C137.596 138.568 137.78 138.405 137.924 138.214C138.255 137.775 138.255 137.163 138.255 135.939C138.255 134.715 138.255 134.103 138.585 133.663C138.729 133.473 138.913 133.309 139.127 133.182C139.623 132.888 140.312 132.888 141.691 132.888H157.032C158.764 132.888 159.63 132.888 160.191 132.437C160.239 132.398 160.285 132.358 160.328 132.316C160.836 131.818 160.836 131.049 160.836 129.511C160.836 127.974 160.836 127.205 161.345 126.707C161.388 126.664 161.434 126.624 161.481 126.586C162.043 126.134 162.909 126.134 164.641 126.134H164.764C166.615 126.134 167.541 126.134 168.116 125.624C168.691 125.113 168.691 124.291 168.691 122.648V99.771C168.691 98.9287 169.46 98.2459 170.409 98.2459H175.564C177.461 98.2459 179 96.8803 179 95.1956C179 93.511 177.461 92.1453 175.564 92.1453H163.864C162.872 92.1453 162.376 92.1454 161.99 92.3007C161.556 92.4752 161.208 92.7838 161.011 93.169C160.836 93.5119 160.836 93.9521 160.836 94.8325V113.497C160.836 115.141 160.836 115.962 160.261 116.473C159.686 116.983 158.76 116.983 156.909 116.983H93.0909C91.2396 116.983 90.3139 116.983 89.7388 116.473C89.1636 115.962 89.1636 115.141 89.1636 113.497V94.8325C89.1636 93.9521 89.1636 93.5119 88.9886 93.169C88.792 92.7838 88.4443 92.4752 88.0104 92.3007C87.6241 92.1454 87.1282 92.1453 86.1364 92.1453Z" fill="white"/>
<path d="M82.6026 173.136L120.323 160.234C120.966 160.014 121.658 160.435 121.658 161.047V171.042C121.658 172.741 123.209 174.117 125.123 174.117C127.036 174.117 128.587 172.741 128.587 171.042V161.048C128.587 160.436 129.28 160.015 129.923 160.235L167.538 173.133C169.166 173.691 170.994 172.972 171.622 171.527C172.25 170.079 171.434 168.454 169.802 167.901L135.1 156.143C134.339 155.885 133.836 155.237 133.836 154.514V147.05C133.836 146.088 132.957 145.307 131.873 145.307H125.123H118.373C117.288 145.307 116.409 146.088 116.409 147.05V154.513C116.409 155.236 115.906 155.885 115.144 156.142L80.3441 167.902C78.7101 168.455 77.8929 170.081 78.5215 171.529C79.1484 172.973 80.9756 173.693 82.6026 173.136Z" fill="white"/>
<path d="M129.418 179.078C129.418 181.244 127.44 183 125 183C122.56 183 120.582 181.244 120.582 179.078C120.582 176.912 122.56 175.156 125 175.156C127.44 175.156 129.418 176.912 129.418 179.078Z" fill="white"/>
<path d="M86.2182 178.207C86.2182 180.373 84.2401 182.128 81.8 182.128C79.3599 182.128 77.3818 180.373 77.3818 178.207C77.3818 176.041 79.3599 174.285 81.8 174.285C84.2401 174.285 86.2182 176.041 86.2182 178.207Z" fill="white"/>
<path d="M172.864 178.207C172.864 180.373 170.886 182.128 168.445 182.128C166.005 182.128 164.027 180.373 164.027 178.207C164.027 176.041 166.005 174.285 168.445 174.285C170.886 174.285 172.864 176.041 172.864 178.207Z" fill="white"/>
<path fill-rule="evenodd" clip-rule="evenodd" d="M99.0343 112.626H150.89C152.567 112.626 153.405 112.626 153.965 112.18C154.525 111.733 154.615 110.993 154.794 109.513L163.46 38.1117L160.766 37.147C157.434 35.9537 155.767 35.3571 154.467 34.3075C153.166 33.2579 152.338 31.8423 150.683 29.0112L150.057 27.9402C149.789 27.4824 149.656 27.2535 149.421 27.1267C149.186 27 148.895 27 148.314 27H101.61C101.029 27 100.738 27 100.503 27.1267C100.268 27.2535 100.134 27.4824 99.8668 27.9402L99.2407 29.0112C97.5855 31.8423 96.7579 33.2579 95.4571 34.3075C94.1564 35.3571 92.4901 35.9537 89.1577 37.147L86.4636 38.1117L95.1296 109.513C95.3092 110.993 95.3991 111.733 95.9588 112.18C96.5185 112.626 97.3571 112.626 99.0343 112.626ZM104.696 32.0993C104.467 32.0993 104.25 32.0993 104.066 32.116C103.861 32.1346 103.645 32.1774 103.434 32.2912C103.223 32.405 103.08 32.5555 102.967 32.7088C102.866 32.846 102.766 33.0168 102.66 33.1972L102.107 34.1443C100.654 36.6299 99.9917 37.7442 98.9703 38.5684C97.9489 39.3925 96.6363 39.8713 93.7106 40.919L92.542 41.3374C92.2803 41.4311 92.0353 41.5188 91.8405 41.6134C91.6237 41.7186 91.4094 41.8592 91.2565 42.0856C91.1037 42.312 91.0649 42.546 91.0626 42.7653C91.0604 42.9624 91.0888 43.1955 91.119 43.4446L98.4865 104.147C98.5604 104.756 98.6223 105.267 98.7313 105.671C98.8466 106.098 99.0319 106.479 99.4071 106.778C99.7824 107.077 100.228 107.2 100.719 107.256C101.183 107.309 101.762 107.309 102.452 107.308H147.397C148.087 107.309 148.666 107.309 149.13 107.256C149.621 107.2 150.067 107.077 150.442 106.778C150.817 106.479 151.003 106.098 151.118 105.671C151.227 105.267 151.289 104.756 151.363 104.147L158.73 43.4445C158.76 43.1955 158.789 42.9623 158.787 42.7653C158.784 42.546 158.745 42.312 158.593 42.0856C158.44 41.8592 158.225 41.7186 158.009 41.6134C157.814 41.5188 157.569 41.4311 157.307 41.3374L156.139 40.919C153.213 39.8713 151.9 39.3925 150.879 38.5684C149.857 37.7442 149.196 36.6299 147.742 34.1443L147.189 33.1971C147.083 33.0168 146.984 32.846 146.882 32.7088C146.769 32.5555 146.627 32.405 146.416 32.2912C146.205 32.1774 145.989 32.1346 145.783 32.116C145.599 32.0993 145.382 32.0993 145.154 32.0993H104.696ZM104.095 33.2577C104.095 33.2577 104.1 33.2558 104.106 33.2542C104.119 33.2509 104.146 33.2456 104.196 33.2411C104.307 33.231 104.457 33.2303 104.722 33.2303H145.127C145.392 33.2303 145.542 33.231 145.654 33.2411C145.704 33.2456 145.73 33.2509 145.743 33.2542C145.749 33.2558 145.753 33.2572 145.753 33.2572L145.757 33.2601L145.762 33.2647C145.772 33.2734 145.789 33.2918 145.817 33.3291C145.878 33.4121 145.948 33.5304 146.07 33.7386L146.677 34.7767C148.046 37.1196 148.812 38.4287 150.022 39.4052C151.232 40.3818 152.773 40.9334 155.531 41.9208L156.802 42.3759C157.102 42.4836 157.276 42.5469 157.397 42.6057C157.452 42.6323 157.479 42.65 157.491 42.6593C157.497 42.6636 157.499 42.6664 157.499 42.6664C157.499 42.6664 157.502 42.6713 157.503 42.6777C157.507 42.6915 157.512 42.7207 157.513 42.7761C157.514 42.8987 157.495 43.0648 157.46 43.3509L150.1 103.99C150.021 104.645 149.966 105.082 149.879 105.407C149.795 105.717 149.7 105.849 149.591 105.936C149.482 106.023 149.323 106.093 148.967 106.134C148.594 106.176 148.098 106.178 147.356 106.178H102.494C101.751 106.178 101.255 106.176 100.882 106.134C100.526 106.093 100.367 106.023 100.258 105.936C100.149 105.849 100.054 105.717 99.9704 105.407C99.8827 105.082 99.8284 104.645 99.7488 103.99L92.3891 43.3509C92.3544 43.0648 92.3353 42.8987 92.3366 42.7761C92.3372 42.7207 92.3423 42.6915 92.3458 42.6777C92.3474 42.6713 92.3489 42.6678 92.3489 42.6678C92.3489 42.6678 92.3526 42.6636 92.3582 42.6593C92.3703 42.65 92.3969 42.6323 92.4517 42.6057C92.5729 42.5469 92.7469 42.4836 93.0476 42.3759L94.3185 41.9208C97.0763 40.9334 98.6171 40.3818 99.8273 39.4052C101.038 38.4287 101.803 37.1196 103.172 34.7767L103.779 33.7386C103.901 33.5304 103.971 33.4121 104.032 33.3291C104.06 33.2918 104.077 33.2734 104.087 33.2647C104.091 33.2607 104.095 33.2577 104.095 33.2577Z" fill="white"/>
<path d="M36.1475 203.175V210.247H36.6426C37.4043 210.247 38.0264 210.132 38.5088 209.904C38.9912 209.675 39.3975 209.29 39.7275 208.749C40.0661 208.207 40.2861 207.475 40.3877 206.552H40.832V215.198H40.3877C40.2269 213.564 39.7868 212.49 39.0674 211.973C38.3564 211.448 37.5482 211.186 36.6426 211.186H36.1475V216.455C36.1475 217.335 36.194 217.885 36.2871 218.105C36.3887 218.325 36.5791 218.52 36.8584 218.689C37.1462 218.85 37.5312 218.93 38.0137 218.93H38.585V219.4H29.584V218.93H30.1553C30.6546 218.93 31.0566 218.841 31.3613 218.664C31.5814 218.545 31.7507 218.342 31.8691 218.054C31.9622 217.851 32.0088 217.318 32.0088 216.455V205.13C32.0088 204.25 31.9622 203.7 31.8691 203.48C31.776 203.26 31.5856 203.07 31.2979 202.909C31.0186 202.74 30.6377 202.655 30.1553 202.655H29.584V202.185H44.1074V207.124H43.5869C43.4684 205.964 43.1637 205.105 42.6729 204.546C42.1904 203.988 41.488 203.594 40.5654 203.366C40.0576 203.239 39.1182 203.175 37.7471 203.175H36.1475ZM51.9613 214.5H45.8802L45.1566 216.175C44.9196 216.734 44.8011 217.195 44.8011 217.559C44.8011 218.042 44.9958 218.397 45.3851 218.626C45.6136 218.761 46.1764 218.863 47.0736 218.93V219.4H41.348V218.93C41.9658 218.837 42.4736 218.583 42.8714 218.169C43.2692 217.745 43.7601 216.878 44.3441 215.566L50.5013 201.83H50.7425L56.9505 215.947C57.543 217.284 58.0296 218.126 58.4105 218.473C58.6982 218.736 59.1045 218.888 59.6292 218.93V219.4H51.3011V218.93H51.6439C52.3125 218.93 52.7822 218.837 53.053 218.651C53.2392 218.516 53.3323 218.321 53.3323 218.067C53.3323 217.915 53.307 217.758 53.2562 217.597C53.2392 217.521 53.1123 217.204 52.8753 216.645L51.9613 214.5ZM51.5296 213.56L48.9652 207.631L46.3245 213.56H51.5296ZM74.2116 202.185V202.655C73.6445 202.731 73.2086 202.896 72.9039 203.15C72.4808 203.505 71.8121 204.475 70.8981 206.057L67.1657 212.291V216.455C67.1657 217.343 67.2122 217.898 67.3053 218.118C67.3984 218.329 67.5804 218.52 67.8512 218.689C68.1305 218.85 68.4987 218.93 68.9557 218.93H69.9205V219.4H60.2594V218.93H61.1608C61.6686 218.93 62.0706 218.841 62.3668 218.664C62.5869 218.545 62.7604 218.342 62.8873 218.054C62.9804 217.851 63.027 217.318 63.027 216.455V213.002L58.9772 205.626C58.1732 204.17 57.6061 203.315 57.276 203.061C56.9459 202.799 56.5058 202.663 55.9557 202.655V202.185H64.2077V202.655H63.8395C63.3401 202.655 62.9889 202.727 62.7858 202.871C62.5911 203.015 62.4938 203.167 62.4938 203.328C62.4938 203.632 62.8323 204.398 63.5094 205.626L66.6198 211.326L69.7174 206.133C70.4876 204.864 70.8727 204.022 70.8727 203.607C70.8727 203.379 70.7627 203.188 70.5426 203.036C70.2549 202.824 69.7259 202.697 68.9557 202.655V202.185H74.2116ZM91.1806 202.185V202.655C90.6136 202.731 90.1777 202.896 89.873 203.15C89.4498 203.505 88.7812 204.475 87.8671 206.057L84.1347 212.291V216.455C84.1347 217.343 84.1813 217.898 84.2744 218.118C84.3675 218.329 84.5494 218.52 84.8203 218.689C85.0996 218.85 85.4677 218.93 85.9248 218.93H86.8896V219.4H77.2285V218.93H78.1298C78.6377 218.93 79.0397 218.841 79.3359 218.664C79.556 218.545 79.7295 218.342 79.8564 218.054C79.9495 217.851 79.9961 217.318 79.9961 216.455V213.002L75.9463 205.626C75.1422 204.17 74.5752 203.315 74.2451 203.061C73.915 202.799 73.4749 202.663 72.9248 202.655V202.185H81.1767V202.655H80.8086C80.3092 202.655 79.958 202.727 79.7548 202.871C79.5602 203.015 79.4629 203.167 79.4629 203.328C79.4629 203.632 79.8014 204.398 80.4785 205.626L83.5888 211.326L86.6865 206.133C87.4567 204.864 87.8418 204.022 87.8418 203.607C87.8418 203.379 87.7317 203.188 87.5117 203.036C87.2239 202.824 86.6949 202.697 85.9248 202.655V202.185H91.1806ZM98.095 214.5H92.0139L91.2903 216.175C91.0533 216.734 90.9348 217.195 90.9348 217.559C90.9348 218.042 91.1295 218.397 91.5188 218.626C91.7473 218.761 92.3102 218.863 93.2073 218.93V219.4H87.4817V218.93C88.0996 218.837 88.6074 218.583 89.0052 218.169C89.4029 217.745 89.8938 216.878 90.4778 215.566L96.635 201.83H96.8763L103.084 215.947C103.677 217.284 104.163 218.126 104.544 218.473C104.832 218.736 105.238 218.888 105.763 218.93V219.4H97.4348V218.93H97.7776C98.4462 218.93 98.916 218.837 99.1868 218.651C99.373 218.516 99.4661 218.321 99.4661 218.067C99.4661 217.915 99.4407 217.758 99.3899 217.597C99.373 217.521 99.246 217.204 99.0091 216.645L98.095 214.5ZM97.6634 213.56L95.0989 207.631L92.4583 213.56H97.6634ZM120.117 202.185L109.999 218.435H113.274C114.823 218.435 115.906 218.338 116.524 218.143C117.531 217.838 118.399 217.28 119.127 216.467C119.854 215.646 120.358 214.55 120.637 213.179H121.132L120.434 219.4H104.667L114.797 203.125H112.246C111.255 203.125 110.604 203.154 110.291 203.213C109.698 203.323 109.14 203.544 108.615 203.874C108.099 204.195 107.667 204.627 107.32 205.169C106.981 205.71 106.715 206.396 106.52 207.225H106.05L106.52 202.185H120.117ZM143.932 209.104H149.213V209.599C148.621 209.684 148.155 209.862 147.817 210.132C147.478 210.395 147.038 211.013 146.497 211.986C145.955 212.959 145.193 214.047 144.211 215.249C145.075 216.027 145.777 216.569 146.319 216.874C146.7 217.085 147.072 217.191 147.436 217.191C148.062 217.191 148.629 216.781 149.137 215.96L149.658 216.239C148.964 217.601 148.223 218.571 147.436 219.146C146.835 219.578 146.15 219.794 145.379 219.794C144.719 219.794 144.089 219.654 143.488 219.375C142.895 219.087 142.172 218.554 141.317 217.775C140.259 218.486 139.265 219.002 138.334 219.324C137.403 219.637 136.433 219.794 135.426 219.794C133.818 219.794 132.54 219.358 131.592 218.486C130.644 217.614 130.17 216.59 130.17 215.414C130.17 214.144 130.623 213.04 131.529 212.1C132.434 211.161 133.751 210.348 135.477 209.663C135.257 209.113 135.092 208.575 134.982 208.05C134.872 207.526 134.817 207.018 134.817 206.527C134.817 205.173 135.291 204.047 136.239 203.15C137.195 202.244 138.414 201.792 139.895 201.792C141.088 201.792 142.032 202.092 142.726 202.693C143.429 203.285 143.78 203.979 143.78 204.775C143.78 205.731 143.42 206.552 142.701 207.238C141.99 207.915 140.86 208.537 139.311 209.104C140.267 210.788 141.668 212.604 143.513 214.55C144.757 213.154 145.379 211.956 145.379 210.958C145.379 210.602 145.257 210.302 145.011 210.056C144.766 209.802 144.406 209.65 143.932 209.599V209.104ZM138.879 208.342C139.768 208.012 140.365 207.661 140.669 207.289C140.974 206.908 141.127 206.451 141.127 205.918C141.127 204.97 140.877 204.17 140.378 203.518C140.047 203.087 139.641 202.871 139.159 202.871C138.761 202.871 138.418 203.027 138.13 203.34C137.851 203.654 137.711 204.077 137.711 204.61C137.711 205.025 137.779 205.469 137.915 205.943C138.05 206.417 138.372 207.217 138.879 208.342ZM135.833 210.475C135.155 210.763 134.677 211.068 134.398 211.389C134 211.863 133.801 212.392 133.801 212.976C133.801 213.772 134.03 214.563 134.487 215.35C134.952 216.137 135.511 216.747 136.163 217.178C136.814 217.61 137.466 217.826 138.118 217.826C138.439 217.826 138.799 217.758 139.197 217.623C139.603 217.479 140.043 217.267 140.517 216.988C138.477 214.897 136.916 212.726 135.833 210.475ZM170.541 201.792L170.68 207.53H170.16C169.914 206.091 169.309 204.936 168.344 204.064C167.388 203.184 166.351 202.744 165.234 202.744C164.371 202.744 163.685 202.976 163.177 203.442C162.678 203.899 162.428 204.428 162.428 205.029C162.428 205.41 162.517 205.748 162.695 206.045C162.94 206.442 163.334 206.836 163.876 207.225C164.273 207.504 165.192 208 166.63 208.711C168.645 209.701 170.003 210.636 170.706 211.516C171.4 212.396 171.747 213.404 171.747 214.538C171.747 215.976 171.184 217.216 170.058 218.257C168.941 219.29 167.519 219.806 165.792 219.806C165.251 219.806 164.739 219.751 164.256 219.641C163.774 219.531 163.169 219.324 162.441 219.019C162.035 218.85 161.7 218.765 161.438 218.765C161.218 218.765 160.985 218.85 160.74 219.019C160.494 219.188 160.295 219.447 160.143 219.794H159.673V213.294H160.143C160.515 215.122 161.231 216.518 162.289 217.483C163.355 218.439 164.502 218.918 165.729 218.918C166.677 218.918 167.43 218.659 167.989 218.143C168.556 217.627 168.839 217.026 168.839 216.34C168.839 215.934 168.729 215.541 168.509 215.16C168.298 214.779 167.972 214.419 167.532 214.081C167.092 213.734 166.313 213.285 165.196 212.735C163.63 211.965 162.504 211.309 161.819 210.767C161.133 210.226 160.604 209.62 160.232 208.952C159.868 208.283 159.686 207.547 159.686 206.743C159.686 205.372 160.19 204.204 161.197 203.239C162.204 202.274 163.473 201.792 165.005 201.792C165.564 201.792 166.106 201.859 166.63 201.995C167.028 202.096 167.511 202.287 168.078 202.566C168.653 202.837 169.055 202.972 169.284 202.972C169.504 202.972 169.677 202.905 169.804 202.769C169.931 202.634 170.05 202.308 170.16 201.792H170.541ZM181.022 201.944C183.764 201.842 185.99 202.642 187.7 204.343C189.418 206.045 190.277 208.173 190.277 210.729C190.277 212.913 189.638 214.834 188.36 216.493C186.667 218.693 184.277 219.794 181.187 219.794C178.09 219.794 175.695 218.744 174.002 216.645C172.665 214.986 171.996 213.018 171.996 210.742C171.996 208.186 172.863 206.057 174.598 204.356C176.342 202.646 178.483 201.842 181.022 201.944ZM181.175 202.756C179.6 202.756 178.403 203.56 177.582 205.169C176.913 206.489 176.579 208.385 176.579 210.856C176.579 213.793 177.095 215.964 178.128 217.369C178.847 218.351 179.854 218.841 181.149 218.841C182.021 218.841 182.749 218.63 183.333 218.207C184.078 217.665 184.657 216.802 185.072 215.617C185.487 214.423 185.694 212.87 185.694 210.958C185.694 208.681 185.483 206.98 185.059 205.854C184.636 204.72 184.095 203.92 183.434 203.455C182.783 202.989 182.029 202.756 181.175 202.756ZM195.871 202.185L204.364 212.862V205.461C204.364 204.428 204.216 203.73 203.92 203.366C203.514 202.875 202.833 202.638 201.876 202.655V202.185H207.564V202.655C206.836 202.748 206.345 202.871 206.091 203.023C205.846 203.167 205.651 203.408 205.507 203.747C205.372 204.077 205.304 204.648 205.304 205.461V219.794H204.872L193.231 205.461V216.404C193.231 217.394 193.455 218.063 193.903 218.41C194.361 218.757 194.881 218.93 195.465 218.93H195.871V219.4H189.765V218.93C190.713 218.922 191.373 218.727 191.745 218.346C192.118 217.965 192.304 217.318 192.304 216.404V204.254L191.936 203.797C191.572 203.34 191.25 203.04 190.971 202.896C190.692 202.752 190.29 202.672 189.765 202.655V202.185H195.871ZM218.579 201.792L218.718 207.53H218.198C217.952 206.091 217.347 204.936 216.382 204.064C215.426 203.184 214.389 202.744 213.272 202.744C212.409 202.744 211.723 202.976 211.215 203.442C210.716 203.899 210.466 204.428 210.466 205.029C210.466 205.41 210.555 205.748 210.733 206.045C210.978 206.442 211.372 206.836 211.914 207.225C212.311 207.504 213.23 208 214.668 208.711C216.683 209.701 218.041 210.636 218.744 211.516C219.438 212.396 219.785 213.404 219.785 214.538C219.785 215.976 219.222 217.216 218.096 218.257C216.979 219.29 215.557 219.806 213.831 219.806C213.289 219.806 212.777 219.751 212.294 219.641C211.812 219.531 211.207 219.324 210.479 219.019C210.073 218.85 209.738 218.765 209.476 218.765C209.256 218.765 209.023 218.85 208.778 219.019C208.532 219.188 208.333 219.447 208.181 219.794H207.711V213.294H208.181C208.554 215.122 209.269 216.518 210.327 217.483C211.393 218.439 212.54 218.918 213.767 218.918C214.715 218.918 215.468 218.659 216.027 218.143C216.594 217.627 216.877 217.026 216.877 216.34C216.877 215.934 216.767 215.541 216.547 215.16C216.336 214.779 216.01 214.419 215.57 214.081C215.13 213.734 214.351 213.285 213.234 212.735C211.668 211.965 210.542 211.309 209.857 210.767C209.171 210.226 208.642 209.62 208.27 208.952C207.906 208.283 207.724 207.547 207.724 206.743C207.724 205.372 208.228 204.204 209.235 203.239C210.242 202.274 211.512 201.792 213.043 201.792C213.602 201.792 214.144 201.859 214.668 201.995C215.066 202.096 215.549 202.287 216.116 202.566C216.691 202.837 217.093 202.972 217.322 202.972C217.542 202.972 217.715 202.905 217.842 202.769C217.969 202.634 218.088 202.308 218.198 201.792H218.579Z" fill="white"/>
</g>
<defs>
<linearGradient id="paint0_linear_4023_2" x1="245" y1="5" x2="5" y2="245" gradientUnits="userSpaceOnUse">
<stop stop-color="#F38157"/>
<stop offset="1" stop-color="#AB2B18"/>
</linearGradient>
<clipPath id="clip0_4023_2">
<rect width="250" height="250" fill="white"/>
</clipPath>
</defs>
</svg>
